<svg width="256" height="256" viewBox="0 0 256 256" fill="none" xmlns="http://www.w3.org/2000/svg">
<g clip-path="url(#clip0_11733_12734)">
<path d="M163.231 65.4211H148.203L175.236 38.1684C178.554 34.7468 178.286 29.4502 174.626 26.3433C170.966 23.2364 165.316 23.4908 161.991 26.9125L128 61.3366L113.213 46.0898C109.895 42.6681 104.238 42.4137 100.578 45.5206C96.9182 48.6276 96.6501 53.9241 99.968 57.3457L107.797 65.4144H92.769C63.1819 65.4211 39.1113 87.9531 39.1113 115.648V181.603C39.1113 209.298 63.1819 231.83 92.769 231.83H163.231C192.818 231.83 216.889 209.298 216.889 181.603V115.648C216.889 87.9531 192.818 65.4211 163.231 65.4211ZM199.005 181.603C199.005 200.071 182.958 215.09 163.231 215.09H92.769C73.042 215.09 56.995 200.071 56.995 181.603V115.648C56.995 97.1802 73.042 82.1611 92.769 82.1611H163.231C182.958 82.1611 199.005 97.1802 199.005 115.648V181.603Z" fill="url(#paint0_linear_11733_12734)"/>
<path d="M161.809 103.326H96.3002C84.3621 103.326 76.8547 116.276 82.6528 126.843L122.911 196.709C125.639 201.141 132.121 201.141 134.849 196.709L175.108 126.843C181.248 116.276 173.74 103.326 161.802 103.326H161.809ZM123.26 175.583L114.392 158.541L93.2369 120.709C91.8695 118.325 93.5788 115.258 96.6487 115.258H123.26V175.583ZM164.879 120.709L143.724 158.541L134.856 175.583V115.258H161.467C164.537 115.258 166.246 118.325 164.879 120.709Z" fill="url(#paint1_linear_11733_12734)"/>
</g>
<defs>
<linearGradient id="paint0_linear_11733_12734" x1="72.4924" y1="69.7199" x2="216.525" y2="248.363" gradientUnits="userSpaceOnUse">
<stop stop-color="#0098EA"/>
<stop offset="1" stop-color="#2709BD"/>
</linearGradient>
<linearGradient id="paint1_linear_11733_12734" x1="74.321" y1="61.2753" x2="223.783" y2="246.646" gradientUnits="userSpaceOnUse">
<stop stop-color="#0098EA"/>
<stop offset="1" stop-color="#2709BD"/>
</linearGradient>
<clipPath id="clip0_11733_12734">
<rect width="256" height="256" fill="white"/>
</clipPath>
</defs>
</svg>
