<svg width="21" height="21" viewBox="0 0 21 21" fill="none" xmlns="http://www.w3.org/2000/svg">
<rect width="20.29" height="20.29" rx="6" fill="#3A64FF"/>
<path d="M11.02 3.14502C11.9866 3.14502 12.77 3.92842 12.77 4.89502V7.52002H15.395C16.3616 7.52002 17.145 8.30342 17.145 9.27002V15.395C17.145 16.3616 16.3616 17.145 15.395 17.145H9.27002C8.30349 17.1449 7.52002 16.3616 7.52002 15.395V12.77H4.89502C3.92849 12.7699 3.14502 11.9866 3.14502 11.02V4.89502C3.14502 3.92847 3.92849 3.1451 4.89502 3.14502H11.02ZM12.77 11.061H13.4399C13.1616 11.7995 12.7919 12.4133 12.3267 12.9243C12.1983 12.7874 12.0765 12.6444 11.9634 12.4946C11.7165 12.6529 11.4336 12.7464 11.1411 12.7661C11.3099 13.0291 11.4925 13.2756 11.6919 13.5054C11.0373 14.0085 10.2281 14.3817 9.27002 14.6362C9.42588 14.826 9.66432 15.1921 9.75537 15.395C10.7397 15.0809 11.5756 14.6561 12.2808 14.0874C12.9605 14.6693 13.8031 15.107 14.8452 15.3755C14.9617 15.1532 15.2069 14.7859 15.395 14.5962C14.4107 14.3747 13.5949 13.9894 12.9272 13.4731C13.523 12.8197 13.997 12.0286 14.3462 11.061H15.395V10.145H12.77V11.061ZM4.89502 4.02002C4.41193 4.0201 4.02002 4.41191 4.02002 4.89502V11.02C4.02002 11.5031 4.41193 11.8949 4.89502 11.895H11.02C11.5032 11.895 11.895 11.5032 11.895 11.02V4.89502C11.895 4.41186 11.5032 4.02002 11.02 4.02002H4.89502ZM10.145 10.145H9.12354L8.74365 9.02002H7.12158L6.7417 10.145H5.77002L7.39893 5.77002H8.52295L10.145 10.145ZM7.3208 8.37549H8.55127L7.95752 6.60693H7.91455L7.3208 8.37549Z" fill="white"/>
</svg>
